<svg width="328pt" height="328pt" viewBox="0.00 0.00 328.00 328.00" xmlns="http://www.w3.org/2000/svg" xmlns:xlink="http://www.w3.org/1999/xlink">
<g id="graph0" class="graph" transform="scale(1 1) rotate(0) translate(4 324.4)">
<title>G</title>
<polygon fill="white" stroke="none" points="-4,4 -4,-324.4 324.4,-324.4 324.4,4 -4,4"/>
<!-- 0000 -->
<g id="node1" class="node">
<title>0000</title>
<ellipse fill="#d0e1fd" stroke="black" cx="160.2" cy="-304.2" rx="16.2" ry="16.2"/>
<text xml:space="preserve" text-anchor="middle" x="160.2" y="-301.2" font-family="Arial" font-size="10.00">0000</text>
</g>
<!-- 1111 -->
<g id="node2" class="node">
<title>1111</title>
<ellipse fill="#d0e1fd" stroke="black" cx="105.12" cy="-293.26" rx="16.2" ry="16.2"/>
<text xml:space="preserve" text-anchor="middle" x="105.12" y="-290.26" font-family="Arial" font-size="10.00">1111</text>
</g>
<!-- 0000&#45;&gt;1111 -->
<g id="edge1" class="edge">
<title>0000-&gt;1111</title>
<path fill="none" stroke="black" d="M143.97,-300.98C139.2,-300.03 133.87,-298.97 128.73,-297.95"/>
<polygon fill="black" stroke="black" points="129.2,-295.9 122.91,-296.79 128.38,-300.02 129.2,-295.9"/>
</g>
<!-- 1110 -->
<g id="node3" class="node">
<title>1110</title>
<ellipse fill="#d0e1fd" stroke="black" cx="58.39" cy="-262.01" rx="16.2" ry="16.2"/>
<text xml:space="preserve" text-anchor="middle" x="58.39" y="-259.01" font-family="Arial" font-size="10.00">1110</text>
</g>
<!-- 1111&#45;&gt;1110 -->
<g id="edge2" class="edge">
<title>1111-&gt;1110</title>
<path fill="none" stroke="black" d="M91.35,-284.05C87.3,-281.34 82.78,-278.32 78.42,-275.4"/>
<polygon fill="black" stroke="black" points="79.64,-273.69 73.48,-272.1 77.3,-277.18 79.64,-273.69"/>
</g>
<!-- 1101 -->
<g id="node4" class="node">
<title>1101</title>
<ellipse fill="#d0e1fd" stroke="black" cx="27.14" cy="-215.28" rx="16.2" ry="16.2"/>
<text xml:space="preserve" text-anchor="middle" x="27.14" y="-212.28" font-family="Arial" font-size="10.00">1101</text>
</g>
<!-- 1110&#45;&gt;1101 -->
<g id="edge3" class="edge">
<title>1110-&gt;1101</title>
<path fill="none" stroke="black" d="M49.19,-248.24C46.48,-244.19 43.46,-239.67 40.54,-235.31"/>
<polygon fill="black" stroke="black" points="42.31,-234.19 37.23,-230.37 38.82,-236.52 42.31,-234.19"/>
</g>
<!-- 1100 -->
<g id="node5" class="node">
<title>1100</title>
<ellipse fill="#d0e1fd" stroke="black" cx="16.2" cy="-160.2" rx="16.2" ry="16.2"/>
<text xml:space="preserve" text-anchor="middle" x="16.2" y="-157.2" font-family="Arial" font-size="10.00">1100</text>
</g>
<!-- 1101&#45;&gt;1100 -->
<g id="edge4" class="edge">
<title>1101-&gt;1100</title>
<path fill="none" stroke="black" d="M23.92,-199.05C22.97,-194.28 21.91,-188.95 20.89,-183.81"/>
<polygon fill="black" stroke="black" points="22.96,-183.46 19.73,-177.99 18.84,-184.28 22.96,-183.46"/>
</g>
<!-- 1011 -->
<g id="node6" class="node">
<title>1011</title>
<ellipse fill="#d0e1fd" stroke="black" cx="27.14" cy="-105.12" rx="16.2" ry="16.2"/>
<text xml:space="preserve" text-anchor="middle" x="27.14" y="-102.12" font-family="Arial" font-size="10.00">1011</text>
</g>
<!-- 1100&#45;&gt;1011 -->
<g id="edge5" class="edge">
<title>1100-&gt;1011</title>
<path fill="none" stroke="black" d="M19.42,-143.97C20.37,-139.2 21.43,-133.87 22.45,-128.73"/>
<polygon fill="black" stroke="black" points="24.5,-129.2 23.61,-122.91 20.38,-128.38 24.5,-129.2"/>
</g>
<!-- 1010 -->
<g id="node7" class="node">
<title>1010</title>
<ellipse fill="#d0e1fd" stroke="black" cx="58.39" cy="-58.39" rx="16.2" ry="16.2"/>
<text xml:space="preserve" text-anchor="middle" x="58.39" y="-55.39" font-family="Arial" font-size="10.00">1010</text>
</g>
<!-- 1011&#45;&gt;1010 -->
<g id="edge6" class="edge">
<title>1011-&gt;1010</title>
<path fill="none" stroke="black" d="M36.35,-91.35C39.06,-87.3 42.08,-82.78 45,-78.42"/>
<polygon fill="black" stroke="black" points="46.71,-79.64 48.3,-73.48 43.22,-77.3 46.71,-79.64"/>
</g>
<!-- 1001 -->
<g id="node8" class="node">
<title>1001</title>
<ellipse fill="#d0e1fd" stroke="black" cx="105.12" cy="-27.14" rx="16.2" ry="16.2"/>
<text xml:space="preserve" text-anchor="middle" x="105.12" y="-24.14" font-family="Arial" font-size="10.00">1001</text>
</g>
<!-- 1010&#45;&gt;1001 -->
<g id="edge7" class="edge">
<title>1010-&gt;1001</title>
<path fill="none" stroke="black" d="M72.16,-49.19C76.21,-46.48 80.73,-43.46 85.09,-40.54"/>
<polygon fill="black" stroke="black" points="86.21,-42.31 90.03,-37.23 83.88,-38.82 86.21,-42.31"/>
</g>
<!-- 1000 -->
<g id="node9" class="node">
<title>1000</title>
<ellipse fill="#d0e1fd" stroke="black" cx="160.2" cy="-16.2" rx="16.2" ry="16.2"/>
<text xml:space="preserve" text-anchor="middle" x="160.2" y="-13.2" font-family="Arial" font-size="10.00">1000</text>
</g>
<!-- 1001&#45;&gt;1000 -->
<g id="edge8" class="edge">
<title>1001-&gt;1000</title>
<path fill="none" stroke="black" d="M121.35,-23.92C126.12,-22.97 131.45,-21.91 136.59,-20.89"/>
<polygon fill="black" stroke="black" points="136.94,-22.96 142.41,-19.73 136.12,-18.84 136.94,-22.96"/>
</g>
<!-- 0111 -->
<g id="node10" class="node">
<title>0111</title>
<ellipse fill="#d0e1fd" stroke="black" cx="215.28" cy="-27.14" rx="16.2" ry="16.2"/>
<text xml:space="preserve" text-anchor="middle" x="215.28" y="-24.14" font-family="Arial" font-size="10.00">0111</text>
</g>
<!-- 1000&#45;&gt;0111 -->
<g id="edge9" class="edge">
<title>1000-&gt;0111</title>
<path fill="none" stroke="black" d="M176.43,-19.42C181.2,-20.37 186.53,-21.43 191.67,-22.45"/>
<polygon fill="black" stroke="black" points="191.2,-24.5 197.49,-23.61 192.02,-20.38 191.2,-24.5"/>
</g>
<!-- 0110 -->
<g id="node11" class="node">
<title>0110</title>
<ellipse fill="#d0e1fd" stroke="black" cx="262.01" cy="-58.39" rx="16.2" ry="16.2"/>
<text xml:space="preserve" text-anchor="middle" x="262.01" y="-55.39" font-family="Arial" font-size="10.00">0110</text>
</g>
<!-- 0111&#45;&gt;0110 -->
<g id="edge10" class="edge">
<title>0111-&gt;0110</title>
<path fill="none" stroke="black" d="M229.05,-36.35C233.1,-39.06 237.62,-42.08 241.98,-45"/>
<polygon fill="black" stroke="black" points="240.76,-46.71 246.92,-48.3 243.1,-43.22 240.76,-46.71"/>
</g>
<!-- 0101 -->
<g id="node12" class="node">
<title>0101</title>
<ellipse fill="#d0e1fd" stroke="black" cx="293.26" cy="-105.12" rx="16.2" ry="16.2"/>
<text xml:space="preserve" text-anchor="middle" x="293.26" y="-102.12" font-family="Arial" font-size="10.00">0101</text>
</g>
<!-- 0110&#45;&gt;0101 -->
<g id="edge11" class="edge">
<title>0110-&gt;0101</title>
<path fill="none" stroke="black" d="M271.21,-72.16C273.92,-76.21 276.94,-80.73 279.86,-85.09"/>
<polygon fill="black" stroke="black" points="278.09,-86.21 283.17,-90.03 281.58,-83.88 278.09,-86.21"/>
</g>
<!-- 0100 -->
<g id="node13" class="node">
<title>0100</title>
<ellipse fill="#d0e1fd" stroke="black" cx="304.2" cy="-160.2" rx="16.2" ry="16.2"/>
<text xml:space="preserve" text-anchor="middle" x="304.2" y="-157.2" font-family="Arial" font-size="10.00">0100</text>
</g>
<!-- 0101&#45;&gt;0100 -->
<g id="edge12" class="edge">
<title>0101-&gt;0100</title>
<path fill="none" stroke="black" d="M296.48,-121.35C297.43,-126.12 298.49,-131.45 299.51,-136.59"/>
<polygon fill="black" stroke="black" points="297.44,-136.94 300.67,-142.41 301.56,-136.12 297.44,-136.94"/>
</g>
<!-- 0011 -->
<g id="node14" class="node">
<title>0011</title>
<ellipse fill="#d0e1fd" stroke="black" cx="293.26" cy="-215.28" rx="16.2" ry="16.2"/>
<text xml:space="preserve" text-anchor="middle" x="293.26" y="-212.28" font-family="Arial" font-size="10.00">0011</text>
</g>
<!-- 0100&#45;&gt;0011 -->
<g id="edge13" class="edge">
<title>0100-&gt;0011</title>
<path fill="none" stroke="black" d="M300.98,-176.43C300.03,-181.2 298.97,-186.53 297.95,-191.67"/>
<polygon fill="black" stroke="black" points="295.9,-191.2 296.79,-197.49 300.02,-192.02 295.9,-191.2"/>
</g>
<!-- 0010 -->
<g id="node15" class="node">
<title>0010</title>
<ellipse fill="#d0e1fd" stroke="black" cx="262.01" cy="-262.01" rx="16.2" ry="16.2"/>
<text xml:space="preserve" text-anchor="middle" x="262.01" y="-259.01" font-family="Arial" font-size="10.00">0010</text>
</g>
<!-- 0011&#45;&gt;0010 -->
<g id="edge14" class="edge">
<title>0011-&gt;0010</title>
<path fill="none" stroke="black" d="M284.05,-229.05C281.34,-233.1 278.32,-237.62 275.4,-241.98"/>
<polygon fill="black" stroke="black" points="273.69,-240.76 272.1,-246.92 277.18,-243.1 273.69,-240.76"/>
</g>
<!-- 0001 -->
<g id="node16" class="node">
<title>0001</title>
<ellipse fill="#d0e1fd" stroke="black" cx="215.28" cy="-293.26" rx="16.2" ry="16.2"/>
<text xml:space="preserve" text-anchor="middle" x="215.28" y="-290.26" font-family="Arial" font-size="10.00">0001</text>
</g>
<!-- 0010&#45;&gt;0001 -->
<g id="edge15" class="edge">
<title>0010-&gt;0001</title>
<path fill="none" stroke="black" d="M248.24,-271.21C244.19,-273.92 239.67,-276.94 235.31,-279.86"/>
<polygon fill="black" stroke="black" points="234.19,-278.09 230.37,-283.17 236.52,-281.58 234.19,-278.09"/>
</g>
<!-- 0001&#45;&gt;0000 -->
<g id="edge16" class="edge">
<title>0001-&gt;0000</title>
<path fill="none" stroke="black" d="M199.05,-296.48C194.28,-297.43 188.95,-298.49 183.81,-299.51"/>
<polygon fill="black" stroke="black" points="183.46,-297.44 177.99,-300.67 184.28,-301.56 183.46,-297.44"/>
</g>
</g>
</svg>